<svg xmlns="http://www.w3.org/2000/svg" viewBox="0 0 460.3 190.51"><defs><style>.cls-1{fill:#1c75bc;}.cls-1,.cls-2{stroke:#231f20;stroke-miterlimit:10;}.cls-2{fill:#231f20;}.cls-3{fill:#fff;}.cls-4{fill:none;}</style></defs><g id="Layer_2" data-name="Layer 2"><path class="cls-1" d="M208.75,420c0,21.62-10.59,39.14-23.66,39.14S161.42,441.62,161.42,420c0-13.21,4-24.9,10-32a14.43,14.43,0,0,0,27.29,0C204.79,395.1,208.75,406.79,208.75,420Z" transform="translate(-151.31 -269.13)"/><circle class="cls-1" cx="57.61" cy="125.58" r="4.41"/><circle class="cls-1" cx="62.64" cy="150.11" r="4.41"/><circle class="cls-1" cx="56.45" cy="178.68" r="4.41"/><circle class="cls-1" cx="33.77" cy="113.91" r="11.67"/><circle class="cls-2" cx="37.3" cy="107.03" r="1.84"/><circle class="cls-2" cx="30.38" cy="107.03" r="1.84"/><circle class="cls-1" cx="10.95" cy="178.68" r="4.41"/><circle class="cls-1" cx="4.91" cy="151.29" r="4.41"/><circle class="cls-1" cx="9.64" cy="125.92" r="4.41"/><path class="cls-3" d="M185.73,269.13a79.43,79.43,0,0,1,11.92.9,33.29,33.29,0,0,1,10.69,3.42,20.45,20.45,0,0,1,7.7,7.08Q219,285.09,219,292.4a20.75,20.75,0,0,1-2.14,9.6,21.81,21.81,0,0,1-6.13,7.31,22.39,22.39,0,0,1,7.89,7.51,21.49,21.49,0,0,1,2.94,11.68q0,8-3,13a23,23,0,0,1-7.93,8,32.2,32.2,0,0,1-11.16,4,74.83,74.83,0,0,1-12.73,1.09H151.81v-85.5Zm-8.65,31.35h10.36a12.44,12.44,0,0,0,4.65-.71c1.14-.48,1.72-1.63,1.72-3.47a3.27,3.27,0,0,0-1.57-3.14,10.42,10.42,0,0,0-4.8-.85H177.08Zm0,31.35h12.26a27.06,27.06,0,0,0,2.75-.14,7.16,7.16,0,0,0,2.33-.62,3.7,3.7,0,0,0,1.57-1.38,4.7,4.7,0,0,0,.57-2.52q0-2.75-1.95-3.51a14.77,14.77,0,0,0-5.27-.76H177.08Z" transform="translate(-151.31 -269.13)"/><path class="cls-3" d="M257.55,269.13v62.22h36.29v23.28H232v-85.5Z" transform="translate(-151.31 -269.13)"/><path class="cls-3" d="M337.92,355.86a50.82,50.82,0,0,1-15.3-2.09,27.08,27.08,0,0,1-11.16-6.55,28.47,28.47,0,0,1-6.84-11.4,52.9,52.9,0,0,1-2.33-16.72v-50h25.56v50.35q0,6.93,2.56,10.21a8.63,8.63,0,0,0,7.22,3.28,8.84,8.84,0,0,0,7.41-3.28q2.56-3.27,2.57-10.21V269.13h25.55v50a53.88,53.88,0,0,1-2.28,16.72,28.42,28.42,0,0,1-6.74,11.4,26.75,26.75,0,0,1-11,6.55A49.91,49.91,0,0,1,337.92,355.86Z" transform="translate(-151.31 -269.13)"/><path class="cls-3" d="M441.66,323.37H408.22v8h36.29v23.28H382.66v-85.5h60.23V292.4H408.22v7.79h33.44Z" transform="translate(-151.31 -269.13)"/><path class="cls-3" d="M270.18,372.61a79.56,79.56,0,0,1,11.93.9,33.23,33.23,0,0,1,10.68,3.42,20.38,20.38,0,0,1,7.7,7.08q2.94,4.56,2.94,11.87a20.88,20.88,0,0,1-2.13,9.6,22.14,22.14,0,0,1-6.13,7.31,22.36,22.36,0,0,1,7.88,7.51A21.38,21.38,0,0,1,306,432q0,8-3,13a23.21,23.21,0,0,1-7.93,8,32.11,32.11,0,0,1-11.17,4,73.83,73.83,0,0,1-12.73,1.1H236.27v-85.5ZM261.54,404h10.35a12.27,12.27,0,0,0,4.66-.72c1.14-.47,1.71-1.63,1.71-3.46a3.25,3.25,0,0,0-1.57-3.14,10.37,10.37,0,0,0-4.8-.85H261.54Zm0,31.35h12.25a24.71,24.71,0,0,0,2.76-.15,7.23,7.23,0,0,0,2.33-.61,3.73,3.73,0,0,0,1.56-1.38,4.7,4.7,0,0,0,.57-2.52c0-1.83-.65-3-1.94-3.51a14.83,14.83,0,0,0-5.28-.76H261.54Z" transform="translate(-151.31 -269.13)"/><path class="cls-3" d="M350.17,459.34a51.12,51.12,0,0,1-15.29-2.09,27.16,27.16,0,0,1-11.17-6.55,28.56,28.56,0,0,1-6.83-11.4,52.66,52.66,0,0,1-2.33-16.72v-50H340.1V423q0,6.93,2.57,10.21a8.65,8.65,0,0,0,7.22,3.28,8.86,8.86,0,0,0,7.41-3.28q2.56-3.29,2.56-10.21V372.61h25.56v50a53.93,53.93,0,0,1-2.28,16.72,28.32,28.32,0,0,1-6.75,11.4,26.79,26.79,0,0,1-11,6.55A50.22,50.22,0,0,1,350.17,459.34Z" transform="translate(-151.31 -269.13)"/><path class="cls-3" d="M461.37,453.88a62.21,62.21,0,0,1-8.79,3.13,61.54,61.54,0,0,1-8.41,1.71,58.8,58.8,0,0,1-7.55.53q-42.66,0-42.65-43.8,0-12.63,3.27-21.14a32.64,32.64,0,0,1,9.36-13.58,36,36,0,0,1,14.58-7.22,77.6,77.6,0,0,1,19-2.14,58.66,58.66,0,0,1,7.26.48,75.3,75.3,0,0,1,7.46,1.28c2.41.54,4.62,1.14,6.65,1.8a28.82,28.82,0,0,1,4.75,1.95V399a31.38,31.38,0,0,0-5.22-1.67q-3.33-.8-7.08-1.37t-7.32-1a55.25,55.25,0,0,0-5.84-.38,45.25,45.25,0,0,0-9.55.9,16,16,0,0,0-6.93,3.23,13.84,13.84,0,0,0-4.18,6.36,32.45,32.45,0,0,0-1.38,10.31,29.92,29.92,0,0,0,1.33,9.6,14.22,14.22,0,0,0,10.21,9.69,32.47,32.47,0,0,0,8.6,1q1.23,0,2.76-.09c1-.07,2.12-.16,3.32-.29v-6.93H433.11v-22H470v42.65A54.26,54.26,0,0,1,461.37,453.88Z" transform="translate(-151.31 -269.13)"/></g><g id="Layer_3" data-name="Layer 3"><line class="cls-4" x1="459.23" y1="111.49" x2="460.3" y2="111.49"/></g></svg>