<svg xmlns="http://www.w3.org/2000/svg" viewBox="0 0 708.14 109.16"><defs><style>.cls-1{fill:#1c75bc;}.cls-1,.cls-2{stroke:#231f20;stroke-miterlimit:10;}.cls-2{fill:#231f20;}.cls-3{font-size:95px;fill:#fff;font-family:TTSupersizeBk, "210 Supersize";}.cls-4{letter-spacing:0.02em;}.cls-5{fill:none;}</style></defs><g id="Layer_2" data-name="Layer 2"><path class="cls-1" d="M436.61,376.32c0,22.54-11,40.81-24.68,40.81s-24.68-18.27-24.68-40.81c0-13.78,4.13-26,10.46-33.35a15,15,0,0,0,28.45,0C432.48,350.36,436.61,362.54,436.61,376.32Z" transform="translate(-41.4 -322.66)"/><circle class="cls-1" cx="395.39" cy="27.28" r="4.59"/><circle class="cls-1" cx="400.64" cy="52.86" r="4.59"/><circle class="cls-1" cx="394.18" cy="82.66" r="4.59"/><circle class="cls-1" cx="370.54" cy="15.12" r="12.16"/><circle class="cls-2" cx="374.21" cy="7.95" r="1.91"/><circle class="cls-2" cx="367" cy="7.95" r="1.91"/><circle class="cls-1" cx="346.74" cy="82.66" r="4.59"/><circle class="cls-1" cx="340.43" cy="54.1" r="4.59"/><circle class="cls-1" cx="345.37" cy="27.65" r="4.59"/><text class="cls-3" transform="translate(17.35 76)"><tspan class="cls-4">B</tspan><tspan x="80.18" y="0">LUE</tspan></text><text class="cls-3" transform="translate(418.15 76)">BUG</text></g><g id="Layer_3" data-name="Layer 3"><line class="cls-5" x1="640.87" y1="57.96" x2="641.95" y2="57.96"/></g></svg>