<svg xmlns="http://www.w3.org/2000/svg" viewBox="0 0 481.9 212.63"><defs><style>.cls-1{fill:#1c75bc;}.cls-1,.cls-2{stroke:#231f20;stroke-miterlimit:10;}.cls-2{fill:#231f20;}.cls-3{font-size:95px;fill:#fff;font-family:TTSupersizeBk, "210 Supersize";}.cls-4{letter-spacing:0.02em;}.cls-5{fill:none;}</style></defs><g id="Layer_2" data-name="Layer 2"><path class="cls-1" d="M208.75,420c0,21.62-10.59,39.14-23.66,39.14S161.42,441.62,161.42,420c0-13.21,4-24.9,10-32a14.43,14.43,0,0,0,27.29,0C204.79,395.1,208.75,406.79,208.75,420Z" transform="translate(-129.72 -264.38)"/><circle class="cls-1" cx="79.21" cy="130.33" r="4.41"/><circle class="cls-1" cx="84.23" cy="154.86" r="4.41"/><circle class="cls-1" cx="78.05" cy="183.43" r="4.41"/><circle class="cls-1" cx="55.37" cy="118.66" r="11.67"/><circle class="cls-2" cx="58.9" cy="111.78" r="1.84"/><circle class="cls-2" cx="51.98" cy="111.78" r="1.84"/><circle class="cls-1" cx="32.55" cy="183.43" r="4.41"/><circle class="cls-1" cx="26.5" cy="156.04" r="4.41"/><circle class="cls-1" cx="31.23" cy="130.67" r="4.41"/><text class="cls-3" transform="translate(17.35 76)"><tspan class="cls-4">B</tspan><tspan x="80.18" y="0">LUE</tspan></text><text class="cls-3" transform="translate(101.8 179.48)">BUG</text></g><g id="Layer_3" data-name="Layer 3"><line class="cls-5" x1="480.82" y1="116.24" x2="481.9" y2="116.24"/></g></svg>