<svg xmlns="http://www.w3.org/2000/svg" viewBox="0 0 585.48 772.1"><defs><style>.cls-1{fill:#1c75bc;stroke-width:2px;}.cls-1,.cls-2{stroke:#231f20;stroke-miterlimit:10;}.cls-2{fill:#231f20;}</style></defs><g id="Layer_2" data-name="Layer 2"><path class="cls-1" d="M505.52,462.6c0,189.65-93,343.39-207.68,343.39S90.16,652.25,90.16,462.6c0-115.94,34.76-218.47,88-280.63a126.62,126.62,0,0,0,239.44,0C470.76,244.13,505.52,346.66,505.52,462.6Z" transform="translate(-4.9 -34.9)"/><circle class="cls-1" cx="502.13" cy="205.73" r="38.65"/><circle class="cls-1" cx="545.83" cy="420.31" r="38.65"/><circle class="cls-1" cx="493.93" cy="672.66" r="38.65"/><circle class="cls-1" cx="292.94" cy="103.36" r="102.36"/><circle class="cls-2" cx="323.9" cy="43.02" r="16.11"/><circle class="cls-2" cx="263.19" cy="43.02" r="16.11"/><circle class="cls-1" cx="92.72" cy="671.66" r="38.65"/><circle class="cls-1" cx="39.65" cy="431.36" r="38.65"/><circle class="cls-1" cx="81.17" cy="208.78" r="38.65"/></g></svg>