<svg xmlns="http://www.w3.org/2000/svg" viewBox="0 0 701.5 109.95"><defs><style>.cls-1{fill:#1c75bc;}.cls-1,.cls-2{stroke:#231f20;stroke-miterlimit:10;}.cls-2{fill:#231f20;}.cls-3{font-size:95px;fill:#fff;font-family:TTSupersizeBk, "210 Supersize";}.cls-4{letter-spacing:0.02em;}.cls-5{fill:none;}</style></defs><g id="Layer_2" data-name="Layer 2"><path class="cls-1" d="M88.26,425.9c0,22.53-11.05,40.8-24.68,40.8S38.9,448.43,38.9,425.9c0-13.78,4.13-26,10.45-33.36a15.05,15.05,0,0,0,28.46,0C84.13,399.93,88.26,412.12,88.26,425.9Z" transform="translate(-28.39 -372.23)"/><circle class="cls-1" cx="60.05" cy="27.28" r="4.59"/><circle class="cls-1" cx="65.3" cy="52.86" r="4.59"/><circle class="cls-1" cx="58.84" cy="82.66" r="4.59"/><circle class="cls-1" cx="35.19" cy="15.12" r="12.16"/><circle class="cls-2" cx="38.87" cy="7.95" r="1.91"/><circle class="cls-2" cx="31.66" cy="7.95" r="1.91"/><circle class="cls-1" cx="11.4" cy="82.66" r="4.59"/><circle class="cls-1" cx="5.09" cy="54.1" r="4.59"/><circle class="cls-1" cx="10.03" cy="27.65" r="4.59"/><text class="cls-3" transform="translate(88.7 76)"><tspan class="cls-4">B</tspan><tspan x="80.18" y="0">LUE</tspan></text><text class="cls-3" transform="translate(411.5 76.79)">BUG</text></g><g id="Layer_3" data-name="Layer 3"><line class="cls-5" x1="653.89" y1="8.39" x2="654.96" y2="8.39"/></g></svg>