<svg xmlns="http://www.w3.org/2000/svg" viewBox="0 0 701.5 111.7"><defs><style>.cls-1{fill:#1c75bc;}.cls-1,.cls-2{stroke:#231f20;stroke-miterlimit:10;}.cls-2{fill:#231f20;}.cls-3{font-size:95px;fill:#fff;font-family:TTSupersizeBk, "210 Supersize";}.cls-4{letter-spacing:0.02em;}.cls-5{fill:none;}</style></defs><g id="Layer_2" data-name="Layer 2"><path class="cls-1" d="M93.73,426.35c0,24.61-12.07,44.57-27,44.57s-26.95-20-26.95-44.57c0-15.05,4.51-28.35,11.42-36.42a16.43,16.43,0,0,0,31.07,0C89.22,398,93.73,411.3,93.73,426.35Z" transform="translate(-28.39 -370.47)"/><circle class="cls-1" cx="65.54" cy="27.07" r="5.02"/><circle class="cls-1" cx="71.26" cy="55" r="5.02"/><circle class="cls-1" cx="64.21" cy="87.54" r="5.02"/><circle class="cls-1" cx="38.39" cy="13.78" r="13.28"/><circle class="cls-2" cx="42.41" cy="5.95" r="2.09"/><circle class="cls-2" cx="34.53" cy="5.95" r="2.09"/><circle class="cls-1" cx="12.4" cy="87.54" r="5.02"/><circle class="cls-1" cx="5.52" cy="56.35" r="5.02"/><circle class="cls-1" cx="10.9" cy="27.47" r="5.02"/><text class="cls-3" transform="translate(88.7 77.76)"><tspan class="cls-4">B</tspan><tspan x="80.18" y="0">LUE</tspan></text><text class="cls-3" transform="translate(411.5 78.55)">BUG</text></g><g id="Layer_3" data-name="Layer 3"><line class="cls-5" x1="653.89" y1="10.15" x2="654.96" y2="10.15"/></g></svg>